<svg width="933" height="566" viewBox="0 0 933 566" fill="none" xmlns="http://www.w3.org/2000/svg">
<rect width="933" height="566" fill="white"/>
<path d="M439.361 300.541C431.256 391.167 361.005 462 275.537 462C207.312 462 148.782 416.865 123.818 352.557L172.223 351.503C193.545 389.404 231.96 414.697 275.809 414.697C337.273 414.697 388.061 365.001 396.058 300.541H439.361ZM275.537 104C362.629 104 433.92 177.55 439.756 270.646H396.653C391.042 203.428 339.081 150.766 275.809 150.766C208.79 150.766 154.461 209.849 154.461 282.731C154.461 295.614 156.16 308.065 159.325 319.835H114.421C112.134 307.947 110.929 295.627 110.929 283C110.929 184.141 184.627 104 275.537 104Z" fill="url(#paint0_linear_665_2530)"/>
<path d="M438.401 300.604L441.071 284.423H365.404C351.841 283.42 345.125 279.648 338.7 253.15C336.301 243.825 334.914 238.57 328.908 228.054C314.293 207.642 287.924 214.221 282.32 258.527C279.762 279.279 279.775 285.91 274.447 305.531C267.468 331.864 263.649 333.635 257.237 305.531C253.986 287.943 250.049 284.768 244.338 276.326C230.688 259.336 210.075 263.518 199.828 296.012C195.634 308.507 192.445 314.703 175.792 315.159H114.071L122.083 333.227L179.65 332.418C196.818 331.985 204.251 327.073 213.181 309.226L221.193 289.001C224.881 280.155 227.028 280.476 230.688 289.001C233.528 296.34 235.264 302.631 238.403 317.586C242.238 332.218 245.338 336.876 251.46 342.935C261.945 350.89 267.388 351.152 275.792 342.935C288.2 328.238 292.568 315.584 295.673 284.423C297.34 271.489 298.826 264.289 301.902 251.523C308.191 230.39 312.516 232.635 321.487 257.186C324.8 268.243 327.066 274.283 333.06 284.423C340.942 295.775 348.217 299.479 365.404 300.604H438.401Z" fill="black" stroke="black" stroke-width="4"/>
<path d="M482.687 315.5C480.839 315.5 479.131 315.052 477.563 314.156C476.051 313.26 474.847 312.056 473.951 310.544C473.055 308.976 472.607 307.268 472.607 305.42V265.1C472.607 263.252 473.055 261.572 473.951 260.06C474.847 258.492 476.051 257.26 477.563 256.364C479.131 255.468 480.839 255.02 482.687 255.02H523.007C524.855 255.02 526.535 255.468 528.047 256.364C529.615 257.26 530.847 258.492 531.743 260.06C532.639 261.572 533.087 263.252 533.087 265.1V305.42C533.087 307.268 532.639 308.976 531.743 310.544C530.847 312.056 529.615 313.26 528.047 314.156C526.535 315.052 524.855 315.5 523.007 315.5H482.687ZM482.687 308.696H523.007C523.903 308.696 524.659 308.388 525.275 307.772C525.947 307.1 526.283 306.316 526.283 305.42V265.1C526.283 264.204 525.947 263.448 525.275 262.832C524.659 262.16 523.903 261.824 523.007 261.824H482.687C481.791 261.824 481.007 262.16 480.335 262.832C479.719 263.448 479.411 264.204 479.411 265.1V305.42C479.411 306.316 479.719 307.1 480.335 307.772C481.007 308.388 481.791 308.696 482.687 308.696ZM542.17 334.82V266.78H581.65C583.498 266.78 585.178 267.256 586.69 268.208C588.258 269.104 589.49 270.336 590.386 271.904C591.338 273.416 591.814 275.096 591.814 276.944V305.336C591.814 307.184 591.338 308.892 590.386 310.46C589.49 311.972 588.258 313.204 586.69 314.156C585.178 315.052 583.498 315.5 581.65 315.5H549.058V334.82H542.17ZM552.418 308.612H581.65C582.546 308.612 583.302 308.304 583.918 307.688C584.59 307.016 584.926 306.232 584.926 305.336V276.944C584.926 276.048 584.59 275.292 583.918 274.676C583.302 274.004 582.546 273.668 581.65 273.668H552.418C551.522 273.668 550.738 274.004 550.066 274.676C549.394 275.292 549.058 276.048 549.058 276.944V305.336C549.058 306.232 549.394 307.016 550.066 307.688C550.738 308.304 551.522 308.612 552.418 308.612ZM608.431 315.5C606.583 315.5 604.875 315.052 603.307 314.156C601.795 313.204 600.563 311.972 599.611 310.46C598.715 308.892 598.267 307.184 598.267 305.336V304.664H605.155V305.336C605.155 306.232 605.463 307.016 606.079 307.688C606.751 308.304 607.535 308.612 608.431 308.612H637.663C638.559 308.612 639.315 308.304 639.931 307.688C640.603 307.016 640.939 306.232 640.939 305.336V297.86C640.939 296.964 640.603 296.208 639.931 295.592C639.315 294.92 638.559 294.584 637.663 294.584H608.431C606.583 294.584 604.875 294.136 603.307 293.24C601.795 292.288 600.563 291.056 599.611 289.544C598.715 287.976 598.267 286.268 598.267 284.42V276.944C598.267 275.096 598.715 273.416 599.611 271.904C600.563 270.336 601.795 269.104 603.307 268.208C604.875 267.256 606.583 266.78 608.431 266.78H637.663C639.567 266.78 641.275 267.256 642.787 268.208C644.355 269.104 645.587 270.336 646.483 271.904C647.435 273.416 647.911 275.096 647.911 276.944V277.616H640.939V276.944C640.939 276.048 640.603 275.292 639.931 274.676C639.315 274.004 638.559 273.668 637.663 273.668H608.431C607.535 273.668 606.751 274.004 606.079 274.676C605.463 275.292 605.155 276.048 605.155 276.944V284.42C605.155 285.316 605.463 286.1 606.079 286.772C606.751 287.388 607.535 287.696 608.431 287.696H637.663C639.567 287.696 641.275 288.172 642.787 289.124C644.355 290.02 645.587 291.252 646.483 292.82C647.435 294.332 647.911 296.012 647.911 297.86V305.336C647.911 307.184 647.435 308.892 646.483 310.46C645.587 311.972 644.355 313.204 642.787 314.156C641.275 315.052 639.567 315.5 637.663 315.5H608.431ZM666.269 315.5C664.421 315.5 662.713 315.052 661.145 314.156C659.633 313.204 658.401 311.972 657.449 310.46C656.553 308.892 656.105 307.184 656.105 305.336V276.944C656.105 275.096 656.553 273.416 657.449 271.904C658.401 270.336 659.633 269.104 661.145 268.208C662.713 267.256 664.421 266.78 666.269 266.78H695.501C697.405 266.78 699.113 267.256 700.625 268.208C702.193 269.104 703.425 270.336 704.321 271.904C705.273 273.416 705.749 275.096 705.749 276.944V305.336C705.749 307.184 705.273 308.892 704.321 310.46C703.425 311.972 702.193 313.204 700.625 314.156C699.113 315.052 697.405 315.5 695.501 315.5H666.269ZM666.269 308.612H695.501C696.397 308.612 697.153 308.304 697.769 307.688C698.441 307.016 698.777 306.232 698.777 305.336V276.944C698.777 276.048 698.441 275.292 697.769 274.676C697.153 274.004 696.397 273.668 695.501 273.668H666.269C665.373 273.668 664.589 274.004 663.917 274.676C663.301 275.292 662.993 276.048 662.993 276.944V305.336C662.993 306.232 663.301 307.016 663.917 307.688C664.589 308.304 665.373 308.612 666.269 308.612ZM722.161 315.5C720.257 315.5 718.521 315.052 716.953 314.156C715.441 313.204 714.209 311.972 713.257 310.46C712.361 308.892 711.913 307.184 711.913 305.336V276.944C711.913 275.096 712.361 273.416 713.257 271.904C714.209 270.336 715.441 269.104 716.953 268.208C718.521 267.256 720.257 266.78 722.161 266.78H754.669V250.82H761.557V315.5H722.161ZM722.161 308.612H751.393C752.289 308.612 753.045 308.304 753.661 307.688C754.333 307.016 754.669 306.232 754.669 305.336V276.944C754.669 276.048 754.333 275.292 753.661 274.676C753.045 274.004 752.289 273.668 751.393 273.668H722.161C721.265 273.668 720.481 274.004 719.809 274.676C719.193 275.292 718.885 276.048 718.885 276.944V305.336C718.885 306.232 719.193 307.016 719.809 307.688C720.481 308.304 721.265 308.612 722.161 308.612ZM778.816 315.5C776.968 315.5 775.26 315.052 773.692 314.156C772.18 313.204 770.948 311.972 769.996 310.46C769.1 308.892 768.652 307.184 768.652 305.336V276.944C768.652 275.096 769.1 273.416 769.996 271.904C770.948 270.336 772.18 269.104 773.692 268.208C775.26 267.256 776.968 266.78 778.816 266.78H808.048C809.952 266.78 811.66 267.256 813.172 268.208C814.74 269.104 815.972 270.336 816.868 271.904C817.82 273.416 818.296 275.096 818.296 276.944V294.584H775.54V305.336C775.54 306.232 775.848 307.016 776.464 307.688C777.136 308.304 777.92 308.612 778.816 308.612H818.296V315.5H778.816ZM775.54 287.696H811.324V276.944C811.324 276.048 810.988 275.292 810.316 274.676C809.7 274.004 808.944 273.668 808.048 273.668H778.816C777.92 273.668 777.136 274.004 776.464 274.676C775.848 275.292 775.54 276.048 775.54 276.944V287.696Z" fill="black"/>
<defs>
<linearGradient id="paint0_linear_665_2530" x1="134.595" y1="336.216" x2="427.838" y2="192.063" gradientUnits="userSpaceOnUse">
<stop stop-color="#E8410A"/>
<stop offset="0.366888" stop-color="#CD7254"/>
<stop offset="0.674529" stop-color="#D33400"/>
<stop offset="1" stop-color="#D3937E"/>
</linearGradient>
</defs>
</svg>
