<svg width="740" height="358" viewBox="0 0 740 358" fill="none" xmlns="http://www.w3.org/2000/svg">
<path d="M342.362 196.541C334.257 287.167 264.006 358 178.538 358C110.313 358 51.7825 312.865 26.8193 248.557L75.2236 247.503C96.5457 285.404 134.961 310.697 178.81 310.697C240.274 310.697 291.062 261.001 299.059 196.541H342.362ZM178.538 0C265.63 0.000249137 336.921 73.5503 342.757 166.646H299.654C294.043 99.4282 242.082 46.7656 178.81 46.7656C111.791 46.7656 57.4619 105.849 57.4619 178.731C57.4619 191.614 59.1613 204.065 62.3262 215.835H17.4219C15.1351 203.947 13.9297 191.627 13.9297 179C13.9297 80.141 87.6276 0 178.538 0Z" fill="url(#paint0_linear_687_4743)"/>
<path d="M341.402 196.604L344.072 180.423H268.405C254.842 179.42 248.126 175.648 241.701 149.15C239.302 139.825 237.915 134.57 231.909 124.054C217.294 103.642 190.925 110.221 185.321 154.527C182.763 175.279 182.776 181.91 177.448 201.531C170.469 227.864 166.65 229.635 160.238 201.531C156.986 183.943 153.05 180.768 147.339 172.326C133.689 155.336 113.076 159.518 102.829 192.012C98.6353 204.507 95.4464 210.703 78.7932 211.159H17.0723L25.0841 229.227L82.6508 228.418C99.8189 227.985 107.252 223.073 116.182 205.226L124.194 185.001C127.882 176.155 130.029 176.476 133.689 185.001C136.529 192.34 138.265 198.631 141.404 213.586C145.239 228.218 148.339 232.876 154.461 238.935C164.946 246.89 170.389 247.152 178.793 238.935C191.201 224.238 195.569 211.584 198.674 180.423C200.341 167.489 201.827 160.289 204.903 147.523C211.192 126.39 215.517 128.635 224.488 153.186C227.801 164.243 230.067 170.283 236.061 180.423C243.943 191.775 251.218 195.479 268.405 196.604H341.402Z" fill="black" stroke="black" stroke-width="4"/>
<path d="M385.686 211.5C383.838 211.5 382.13 211.052 380.562 210.156C379.05 209.26 377.846 208.056 376.95 206.544C376.054 204.976 375.606 203.268 375.606 201.42V161.1C375.606 159.252 376.054 157.572 376.95 156.06C377.846 154.492 379.05 153.26 380.562 152.364C382.13 151.468 383.838 151.02 385.686 151.02H426.006C427.854 151.02 429.534 151.468 431.046 152.364C432.614 153.26 433.846 154.492 434.742 156.06C435.638 157.572 436.086 159.252 436.086 161.1V201.42C436.086 203.268 435.638 204.976 434.742 206.544C433.846 208.056 432.614 209.26 431.046 210.156C429.534 211.052 427.854 211.5 426.006 211.5H385.686ZM385.686 204.696H426.006C426.902 204.696 427.658 204.388 428.274 203.772C428.946 203.1 429.282 202.316 429.282 201.42V161.1C429.282 160.204 428.946 159.448 428.274 158.832C427.658 158.16 426.902 157.824 426.006 157.824H385.686C384.79 157.824 384.006 158.16 383.334 158.832C382.718 159.448 382.41 160.204 382.41 161.1V201.42C382.41 202.316 382.718 203.1 383.334 203.772C384.006 204.388 384.79 204.696 385.686 204.696ZM445.169 230.82V162.78H484.649C486.497 162.78 488.177 163.256 489.689 164.208C491.257 165.104 492.489 166.336 493.385 167.904C494.337 169.416 494.813 171.096 494.813 172.944V201.336C494.813 203.184 494.337 204.892 493.385 206.46C492.489 207.972 491.257 209.204 489.689 210.156C488.177 211.052 486.497 211.5 484.649 211.5H452.057V230.82H445.169ZM455.417 204.612H484.649C485.545 204.612 486.301 204.304 486.917 203.688C487.589 203.016 487.925 202.232 487.925 201.336V172.944C487.925 172.048 487.589 171.292 486.917 170.676C486.301 170.004 485.545 169.668 484.649 169.668H455.417C454.521 169.668 453.737 170.004 453.065 170.676C452.393 171.292 452.057 172.048 452.057 172.944V201.336C452.057 202.232 452.393 203.016 453.065 203.688C453.737 204.304 454.521 204.612 455.417 204.612ZM511.43 211.5C509.582 211.5 507.874 211.052 506.306 210.156C504.794 209.204 503.562 207.972 502.61 206.46C501.714 204.892 501.266 203.184 501.266 201.336V200.664H508.154V201.336C508.154 202.232 508.462 203.016 509.078 203.688C509.75 204.304 510.534 204.612 511.43 204.612H540.662C541.558 204.612 542.314 204.304 542.93 203.688C543.602 203.016 543.938 202.232 543.938 201.336V193.86C543.938 192.964 543.602 192.208 542.93 191.592C542.314 190.92 541.558 190.584 540.662 190.584H511.43C509.582 190.584 507.874 190.136 506.306 189.24C504.794 188.288 503.562 187.056 502.61 185.544C501.714 183.976 501.266 182.268 501.266 180.42V172.944C501.266 171.096 501.714 169.416 502.61 167.904C503.562 166.336 504.794 165.104 506.306 164.208C507.874 163.256 509.582 162.78 511.43 162.78H540.662C542.566 162.78 544.274 163.256 545.786 164.208C547.354 165.104 548.586 166.336 549.482 167.904C550.434 169.416 550.91 171.096 550.91 172.944V173.616H543.938V172.944C543.938 172.048 543.602 171.292 542.93 170.676C542.314 170.004 541.558 169.668 540.662 169.668H511.43C510.534 169.668 509.75 170.004 509.078 170.676C508.462 171.292 508.154 172.048 508.154 172.944V180.42C508.154 181.316 508.462 182.1 509.078 182.772C509.75 183.388 510.534 183.696 511.43 183.696H540.662C542.566 183.696 544.274 184.172 545.786 185.124C547.354 186.02 548.586 187.252 549.482 188.82C550.434 190.332 550.91 192.012 550.91 193.86V201.336C550.91 203.184 550.434 204.892 549.482 206.46C548.586 207.972 547.354 209.204 545.786 210.156C544.274 211.052 542.566 211.5 540.662 211.5H511.43ZM569.268 211.5C567.42 211.5 565.712 211.052 564.144 210.156C562.632 209.204 561.4 207.972 560.448 206.46C559.552 204.892 559.104 203.184 559.104 201.336V172.944C559.104 171.096 559.552 169.416 560.448 167.904C561.4 166.336 562.632 165.104 564.144 164.208C565.712 163.256 567.42 162.78 569.268 162.78H598.5C600.404 162.78 602.112 163.256 603.624 164.208C605.192 165.104 606.424 166.336 607.32 167.904C608.272 169.416 608.748 171.096 608.748 172.944V201.336C608.748 203.184 608.272 204.892 607.32 206.46C606.424 207.972 605.192 209.204 603.624 210.156C602.112 211.052 600.404 211.5 598.5 211.5H569.268ZM569.268 204.612H598.5C599.396 204.612 600.152 204.304 600.768 203.688C601.44 203.016 601.776 202.232 601.776 201.336V172.944C601.776 172.048 601.44 171.292 600.768 170.676C600.152 170.004 599.396 169.668 598.5 169.668H569.268C568.372 169.668 567.588 170.004 566.916 170.676C566.3 171.292 565.992 172.048 565.992 172.944V201.336C565.992 202.232 566.3 203.016 566.916 203.688C567.588 204.304 568.372 204.612 569.268 204.612ZM625.16 211.5C623.256 211.5 621.52 211.052 619.952 210.156C618.44 209.204 617.208 207.972 616.256 206.46C615.36 204.892 614.912 203.184 614.912 201.336V172.944C614.912 171.096 615.36 169.416 616.256 167.904C617.208 166.336 618.44 165.104 619.952 164.208C621.52 163.256 623.256 162.78 625.16 162.78H657.668V146.82H664.556V211.5H625.16ZM625.16 204.612H654.392C655.288 204.612 656.044 204.304 656.66 203.688C657.332 203.016 657.668 202.232 657.668 201.336V172.944C657.668 172.048 657.332 171.292 656.66 170.676C656.044 170.004 655.288 169.668 654.392 169.668H625.16C624.264 169.668 623.48 170.004 622.808 170.676C622.192 171.292 621.884 172.048 621.884 172.944V201.336C621.884 202.232 622.192 203.016 622.808 203.688C623.48 204.304 624.264 204.612 625.16 204.612ZM681.815 211.5C679.967 211.5 678.259 211.052 676.691 210.156C675.179 209.204 673.947 207.972 672.995 206.46C672.099 204.892 671.651 203.184 671.651 201.336V172.944C671.651 171.096 672.099 169.416 672.995 167.904C673.947 166.336 675.179 165.104 676.691 164.208C678.259 163.256 679.967 162.78 681.815 162.78H711.047C712.951 162.78 714.659 163.256 716.171 164.208C717.739 165.104 718.971 166.336 719.867 167.904C720.819 169.416 721.295 171.096 721.295 172.944V190.584H678.539V201.336C678.539 202.232 678.847 203.016 679.463 203.688C680.135 204.304 680.919 204.612 681.815 204.612H721.295V211.5H681.815ZM678.539 183.696H714.323V172.944C714.323 172.048 713.987 171.292 713.315 170.676C712.699 170.004 711.943 169.668 711.047 169.668H681.815C680.919 169.668 680.135 170.004 679.463 170.676C678.847 171.292 678.539 172.048 678.539 172.944V183.696Z" fill="black"/>
<defs>
<linearGradient id="paint0_linear_687_4743" x1="37.5964" y1="232.216" x2="330.839" y2="88.063" gradientUnits="userSpaceOnUse">
<stop stop-color="#E8410A"/>
<stop offset="0.366888" stop-color="#CD7254"/>
<stop offset="0.674529" stop-color="#D33400"/>
<stop offset="1" stop-color="#D3937E"/>
</linearGradient>
</defs>
</svg>
