<svg width="33" height="33" viewBox="0 0 33 33" fill="none" xmlns="http://www.w3.org/2000/svg">
<path d="M0 16.5C0 14.2 0.43125 12.05 1.29375 10.05C2.15625 8.05 3.3375 6.30625 4.8375 4.81875C6.3375 3.33125 8.0875 2.15625 10.0875 1.29375C12.0875 0.43125 14.225 0 16.5 0C18.775 0 20.9125 0.43125 22.9125 1.29375C24.9125 2.15625 26.6625 3.33125 28.1625 4.81875C29.6625 6.30625 30.8438 8.05 31.7062 10.05C32.5687 12.05 33 14.2 33 16.5H30C30 14.625 29.6437 12.8687 28.9312 11.2312C28.2188 9.59375 27.25 8.1625 26.025 6.9375C24.8 5.7125 23.3688 4.75 21.7313 4.05C20.0938 3.35 18.35 3 16.5 3C14.65 3 12.9062 3.35 11.2688 4.05C9.63125 4.75 8.2 5.7125 6.975 6.9375C5.75 8.1625 4.78125 9.59375 4.06875 11.2312C3.35625 12.8687 3 14.625 3 16.5H0ZM6 16.5C6 13.55 7.025 11.0625 9.075 9.0375C11.125 7.0125 13.6 6 16.5 6C19.4 6 21.875 7.0125 23.925 9.0375C25.975 11.0625 27 13.55 27 16.5H24C24 14.425 23.2687 12.6562 21.8062 11.1938C20.3438 9.73125 18.575 9 16.5 9C14.425 9 12.6562 9.73125 11.1938 11.1938C9.73125 12.6562 9 14.425 9 16.5H6ZM12 32.1L9.9 30L15 24.9V19.95C14.325 19.65 13.7812 19.1875 13.3687 18.5625C12.9562 17.9375 12.75 17.25 12.75 16.5C12.75 15.45 13.1125 14.5625 13.8375 13.8375C14.5625 13.1125 15.45 12.75 16.5 12.75C17.55 12.75 18.4375 13.1125 19.1625 13.8375C19.8875 14.5625 20.25 15.45 20.25 16.5C20.25 17.25 20.0438 17.9375 19.6313 18.5625C19.2188 19.1875 18.675 19.65 18 19.95V24.9L23.1 30L21 32.1L16.5 27.6L12 32.1Z" fill="#E8410A"/>
</svg>
